<svg width="164" height="164" viewBox="0 0 164 164" fill="none" xmlns="http://www.w3.org/2000/svg">
<path d="M120.681 10.25H44.3761C33.8474 10.25 30.75 18.1938 30.75 23.1938V144.797C30.75 150.432 33.7673 152.523 35.465 153.212C37.1627 153.901 41.8424 154.493 44.6484 151.236C44.6484 151.236 80.6739 109.31 81.2921 108.688C82.2274 107.75 82.2274 107.75 83.1627 107.75H106.472C116.267 107.75 117.84 100.745 118.865 96.6191C119.714 93.1629 129.269 44.0878 132.462 28.5334C134.896 16.6562 131.885 10.25 120.681 10.25ZM118.865 96.6191C119.714 93.1629 129.269 44.0878 132.462 28.5334L118.865 96.6191ZM116.174 30.9646L112.971 47.5344C112.59 49.3441 110.319 51.25 108.211 51.25H77.4868C74.1427 51.25 71.75 53.2167 71.75 56.5672V60.8754C71.75 64.2291 74.1587 66.6058 77.5156 66.6058H103.733C106.097 66.6058 108.413 69.2035 107.897 71.7308C107.382 74.258 104.986 86.6477 104.694 88.0315C104.403 89.4152 102.824 91.7855 100.014 91.7855H79.4375C75.6898 91.7855 74.5559 92.2788 72.0479 95.4051C69.5398 98.5313 46.9802 125.703 46.9802 125.703C46.7528 125.966 46.5286 125.889 46.5286 125.604V30.718C46.5286 28.5751 48.3864 26.0638 51.1667 26.0638H112.391C112.985 26.0768 113.568 26.2224 114.098 26.49C114.628 26.7576 115.091 27.1404 115.454 27.6103C115.816 28.0802 116.069 28.6254 116.194 29.2058C116.319 29.7862 116.312 30.3872 116.174 30.9646Z" fill="black"/>
</svg>
