<svg width="164" height="164" viewBox="0 0 164 164" fill="none" xmlns="http://www.w3.org/2000/svg">
<path d="M82.0161 10.25C42.3935 10.25 10.2661 42.3773 10.2661 82C10.2661 111.373 27.9474 136.613 53.22 147.728C53.0278 142.731 53.188 136.709 54.4692 131.264C55.8466 125.434 63.6942 92.1539 63.6942 92.1539C63.6942 92.1539 61.388 87.5734 61.388 80.8148C61.388 70.1805 67.538 62.2367 75.2255 62.2367C81.7599 62.2367 84.8989 67.1375 84.8989 72.9992C84.8989 79.5656 80.7028 89.3672 78.5567 98.4641C76.763 106.088 82.3685 112.27 89.8958 112.27C103.477 112.27 112.638 94.8125 112.638 74.1203C112.638 58.393 102.036 46.6375 82.7849 46.6375C61.0356 46.6375 47.4544 62.8773 47.4544 81.007C47.4544 87.2531 49.3122 91.6734 52.195 95.0687C53.5083 96.6383 53.7005 97.2789 53.22 99.0727C52.8677 100.386 52.0989 103.557 51.7466 104.838C51.2661 106.664 49.7927 107.305 48.1591 106.632C38.1333 102.532 33.4567 91.5773 33.4567 79.2133C33.4567 58.8414 50.6575 34.4016 84.7388 34.4016C112.125 34.4016 130.159 54.2289 130.159 75.4977C130.159 103.653 114.496 124.666 91.4333 124.666C83.6817 124.666 76.4106 120.47 73.9122 115.729C73.9122 115.729 69.7481 132.257 68.8513 135.46C67.3458 141.002 64.3669 146.511 61.6442 150.835C68.2487 152.784 75.0982 153.776 81.9841 153.782C121.607 153.782 153.734 121.655 153.734 82.032C153.734 42.4094 121.639 10.25 82.0161 10.25Z" fill="black"/>
</svg>
