<svg width="164" height="164" viewBox="0 0 164 164" fill="none" xmlns="http://www.w3.org/2000/svg">
<path d="M105.927 112.75L130.822 51.25H114.32L97.2917 90.9912L85.1807 51.25H72.4931L59.4948 90.9912L50.3243 72.8839L42.0282 98.3359L50.4524 112.75H66.6923L78.4413 77.1088L89.6523 112.75H105.927ZM15.628 91.6382H25.7659C28.5358 91.6771 31.2977 91.3311 33.9723 90.61L36.5925 82.5413L43.9212 59.9945C43.3558 59.1045 42.7127 58.2663 41.9994 57.4897C38.2453 53.3299 32.7434 51.25 25.4937 51.25H0V112.75H15.628V91.6382ZM29.0491 65.3982C30.5204 66.8759 31.255 68.8533 31.2529 71.3304C31.2508 73.8075 30.6101 75.7859 29.331 77.2658C27.9131 78.893 25.3036 79.7055 21.5026 79.7034H15.628V63.1816H21.5282C25.0709 63.1816 27.5778 63.9205 29.0491 65.3982ZM120.71 101.734L125.447 89.8028H139.121L132.632 71.702L140.749 51.25L164 112.75H146.854L142.882 101.734H120.71Z" fill="black"/>
</svg>
