<svg width="164" height="164" viewBox="0 0 164 164" fill="none" xmlns="http://www.w3.org/2000/svg">
<g clip-path="url(#clip0_1869_168)">
<path d="M163.929 105.085C163.459 101.267 161.524 97.9547 158.164 95.2289C158.122 95.178 158.076 95.1309 158.026 95.0879L157.856 94.9662L157.802 94.9278L156.018 93.6465L155.957 93.6017L155.729 93.4415C155.646 93.3929 155.557 93.3552 155.464 93.3294C149.82 89.9694 140.476 87.6151 126.181 92.66C122.769 86.92 122.382 82.3203 124.666 75.2734C125.072 74.0466 124.694 73.2362 123.477 72.7109C121.03 71.6699 117.68 72.2016 115.303 72.8294C114.195 73.1177 113.528 73.7455 113.317 74.6969C111.811 81.7437 107.436 88.182 103.205 94.3961L102.955 94.7612C100.347 89.2326 100.889 84.9501 102.705 79.5848C103.067 78.515 102.782 77.8039 101.779 77.2722C98.9797 75.8276 94.7804 76.8205 93.1084 77.3138C90.9879 77.932 88.7137 83.6624 86.1736 90.5235C85.533 92.25 84.9821 93.7266 84.6522 94.4153C83.8674 96.0169 83.1179 97.8426 82.3235 99.7805C80.5297 104.166 78.5086 109.102 75.6193 112.202C74.5687 109.88 76.2215 106.219 77.8263 102.667C79.7257 98.4672 81.5195 94.4986 79.4535 91.9649C79.1268 91.5643 78.7215 91.2349 78.2626 90.9969C77.8037 90.7589 77.3009 90.6174 76.7853 90.5812C76.1125 90.5299 75.4372 90.6397 74.8154 90.9015C75.03 89.0917 75.0396 87.6631 74.511 85.9366C73.7551 83.4734 71.7916 82.0929 69.0882 82.1665C62.9318 82.3459 57.7235 86.9328 54.4339 90.7509C52.2429 93.3134 47.387 95.2673 43.1236 96.981C41.4388 97.6953 39.8372 98.3359 38.5015 98.9765C36.3714 97.1764 33.6648 95.3602 30.814 93.4415C22.8062 88.0667 13.7318 81.9711 13.4179 73.7071C12.9694 61.5 26.871 52.8419 39.0044 46.6631C48.2006 41.9865 56.1956 38.8859 63.4475 37.1915C73.6334 34.8115 82.237 35.292 89.0148 38.6137C92.724 40.4298 94.4601 44.3793 93.3582 48.4408C90.4754 58.9951 78.531 66.2278 68.3162 69.4822C62.163 71.4425 56.9259 72.2625 52.3006 71.9934C46.5029 71.6571 41.7687 68.7486 39.7443 67.509C39.42 67.2875 39.077 67.0946 38.7193 66.9325L38.6264 66.9101C38.4431 66.8644 38.2508 66.8702 38.0706 66.9267C37.8903 66.9832 37.7291 67.0883 37.6046 67.2304C37.1882 67.7269 37.3356 68.5116 37.4861 68.9088C39.4561 74.0562 43.524 77.3074 49.5747 78.5726C51.555 78.9692 53.5707 79.1613 55.5902 79.146C69.7512 79.146 87.82 70.9812 94.4569 64.2579C98.9829 59.6774 102.279 54.9688 103.643 46.8489C105.069 38.3446 99.3032 32.4348 93.4287 29.7122C79.1524 23.1233 62.9382 25.7275 51.8489 29.0715C38.8763 32.9826 25.4552 40.0935 15.0322 48.5882C2.18129 59.0528 -2.46324 68.7679 1.22035 77.4964C5.00324 86.4427 14.2282 92.0386 23.1489 97.4519C26.0318 99.1976 28.7736 100.86 31.2432 102.577C30.5001 102.939 29.741 103.307 28.969 103.676C21.4801 107.305 12.9854 111.389 8.27363 118.138C4.85269 123.054 4.21207 127.949 6.37098 132.686C7.5241 135.207 9.5741 136.918 12.4217 137.77C13.903 138.189 15.437 138.393 16.9765 138.375C22.5211 138.375 28.6231 136.133 31.9447 134.06C37.8129 130.377 41.615 125.431 43.2486 119.361C44.7028 113.961 44.3536 108.596 42.2396 103.807L49.4306 100.181C45.9616 111.712 48.6202 118.599 51.5414 122.398C52.6177 123.798 54.5588 124.64 56.7273 124.678C58.8958 124.717 60.8914 123.9 62.0189 122.51C64.1521 119.867 65.7281 116.776 67.1791 113.685C67.1022 115.703 67.1983 117.747 67.887 119.48C68.5052 121.04 69.5238 122.074 70.8371 122.471C72.2336 122.897 73.8704 122.539 75.4464 121.462C82.5477 116.603 87.4036 104.941 91.305 95.5652C91.8592 94.2327 92.3909 92.9515 92.9066 91.7535C93.8718 95.2078 95.2146 98.5453 96.9105 101.706C97.2885 102.391 97.2564 102.692 96.7439 103.256C95.972 104.102 94.8958 105.123 93.7554 106.206C90.3025 109.483 86.0039 113.573 85.4273 117.17C85.2031 118.612 86.1961 119.925 87.7368 120.223C92.3717 121.145 97.9547 119.797 102.676 116.619C106.968 113.737 108.583 109.717 107.481 104.707C106.414 99.883 108.849 93.8932 114.717 86.8911C115.678 90.9047 116.959 94.1494 118.727 96.9906L118.679 97.029C114.406 100.761 108.551 105.87 109.46 112.068C109.537 112.657 109.735 113.224 110.043 113.733C110.351 114.241 110.761 114.68 111.248 115.021C111.768 115.372 112.355 115.612 112.973 115.726C113.59 115.839 114.224 115.824 114.835 115.681C120.431 114.505 124.643 112.138 127.705 108.451C130.768 104.765 129.65 100.677 128.618 97.5063C136.626 95.3346 143.756 95.389 150.432 97.6665C154.179 98.9477 156.867 101.052 158.417 103.957C160.368 107.612 159.314 110.985 155.441 113.455C154.253 114.214 153.68 114.678 153.644 115.264C153.636 115.4 153.661 115.536 153.717 115.661C153.773 115.785 153.858 115.894 153.965 115.979C154.413 116.347 155.797 116.988 158.926 115.018C161.809 113.208 163.5 110.745 163.933 107.651C164.02 106.798 164.019 105.938 163.929 105.085ZM35.891 113.112L35.8589 113.522C35.3593 118.211 32.9761 122.298 28.764 125.694C26.1182 127.827 23.245 129.137 20.6761 129.387C18.8824 129.56 17.5787 129.317 16.8036 128.66C16.2238 128.17 15.9131 127.436 15.8426 126.418C15.3173 118.256 28.117 110.146 35.3208 107.478C35.8349 109.309 36.0278 111.215 35.891 113.112ZM68.675 90.0943C67.4898 96.8497 64.0336 109.601 58.6011 114.55C58.3417 114.787 58.1239 114.87 58.0246 114.848C57.9253 114.826 57.8484 114.707 57.7683 114.528C55.9554 110.325 56.6248 103.227 59.3699 97.6504C61.4807 93.3519 64.4949 90.5043 67.8646 89.6426C68.0044 89.604 68.1487 89.5836 68.2938 89.5818C68.4072 89.5738 68.5201 89.6043 68.6141 89.6683C68.6537 89.7309 68.6797 89.8013 68.6902 89.8747C68.7006 89.9482 68.6955 90.023 68.675 90.0943ZM95.4179 114.72C94.3961 115.787 92.9963 115.642 93.3262 115.252L98.5281 109.729C98.1085 111.629 96.8689 113.202 95.4179 114.72ZM116.997 109.944C116.503 110.188 115.967 110.339 115.418 110.389C115.271 107.484 118.086 104.214 120.863 102.032C121.61 105.062 120.082 108.266 116.997 109.944Z" fill="black"/>
</g>
<defs>
<clipPath id="clip0_1869_168">
<rect width="164" height="164" fill="white"/>
</clipPath>
</defs>
</svg>
